<?xml version="1.0" encoding="UTF-8"?>
<svg width="64px" height="64px" viewBox="0 0 64 64" version="1.1" xmlns="http://www.w3.org/2000/svg" xmlns:xlink="http://www.w3.org/1999/xlink">
    <title>appicon-gouda</title>
    <defs>
        <path d="M19.229139,-7.76880231e-16 L44.770861,7.76880231e-16 C51.4572515,-4.51389787e-16 53.8818983,0.696192084 56.3263428,2.00349528 C58.7707872,3.31079847 60.6892015,5.22921278 61.9965047,7.67365722 C63.3038079,10.1181017 64,12.5427485 64,19.229139 L64,44.770861 C64,51.4572515 63.3038079,53.8818983 61.9965047,56.3263428 C60.6892015,58.7707872 58.7707872,60.6892015 56.3263428,61.9965047 C53.8818983,63.3038079 51.4572515,64 44.770861,64 L19.229139,64 C12.5427485,64 10.1181017,63.3038079 7.67365722,61.9965047 C5.22921278,60.6892015 3.31079847,58.7707872 2.00349528,56.3263428 C0.696192084,53.8818983 3.00926524e-16,51.4572515 -5.17920154e-16,44.770861 L5.17920154e-16,19.229139 C-3.00926524e-16,12.5427485 0.696192084,10.1181017 2.00349528,7.67365722 C3.31079847,5.22921278 5.22921278,3.31079847 7.67365722,2.00349528 C10.1181017,0.696192084 12.5427485,4.51389787e-16 19.229139,-7.76880231e-16 Z" id="path-1"></path>
    </defs>
    <g id="appicon-gouda" stroke="none" stroke-width="1" fill="none" fill-rule="evenodd">
        <g id="Cheddar-Copy-8">
            <mask id="mask-2" fill="white">
                <use xlink:href="#path-1"></use>
            </mask>
            <use id="Combined-Shape-Copy" fill="#EFEFEF" fill-rule="nonzero" xlink:href="#path-1"></use>
            <g id="AppIcon-Copy" mask="url(#mask-2)" fill-rule="nonzero">
                <g transform="translate(9.000000, 4.750000)" id="Combined-Shape">
                    <path d="M26.7465344,4.2344602 C33.0746014,4.2344602 35.6354194,4.9491263 38.1326689,6.29111983 C38.5601293,6.52083217 38.971844,6.76892521 39.3673771,7.03496091 L35.821974,12.2174005 C35.5421213,12.0231567 35.2489402,11.8435818 34.9428406,11.6790873 C33.3820596,10.8403413 31.8339195,10.393675 27.5646505,10.393675 L18.4074425,10.393675 C14.1381735,10.393675 12.5900334,10.8403413 11.0292525,11.6790873 C9.46847152,12.5178333 8.24356151,13.7486589 7.40884673,15.3169775 C6.57413195,16.8852961 6.1296124,18.4409128 6.1296124,22.7307998 L6.1296124,31.9322318 C6.1296124,36.2221189 6.57413195,37.7777356 7.40884673,39.3460542 C8.24356151,40.9143728 9.46847152,42.1451984 11.0292525,42.9839443 C12.5900334,43.8226903 14.1381735,44.2693566 18.4074425,44.2693566 L27.5646505,44.2693566 C31.8339195,44.2693566 33.3820596,43.8226903 34.9428406,42.9839443 C36.5036215,42.1451984 37.7285315,40.9143728 38.5632463,39.3460542 C39.3979611,37.7777356 39.8424806,36.2221189 39.8424806,31.9322318 L39.8424806,22.7307998 C39.8424806,21.1267483 39.7803314,19.904981 39.6588729,18.9218922 L44.0948973,12.4375987 C45.3209831,14.8504346 45.972093,17.4689238 45.972093,23.552867 L45.972093,31.1101646 C45.972093,37.4687925 45.2608618,40.0419778 43.9253181,42.5512875 C42.5897745,45.0605973 40.6299184,47.0299183 38.1326689,48.3719118 C35.6354194,49.7139053 33.0746014,50.4285714 26.7465344,50.4285714 L19.2255587,50.4285714 C12.8974916,50.4285714 10.3366736,49.7139053 7.83942408,48.3719118 C5.34217458,47.0299183 3.38231856,45.0605973 2.04677492,42.5512875 C0.711231272,40.0419778 0,37.4687925 0,31.1101646 L0,23.552867 C0,17.1942392 0.711231272,14.6210538 2.04677492,12.1117441 C3.38231856,9.60243435 5.34217458,7.63311337 7.83942408,6.29111983 C10.3366736,4.9491263 12.8974916,4.2344602 19.2255587,4.2344602 L26.7465344,4.2344602 Z M35.821974,12.2174005 C36.969071,13.0135921 37.8922354,14.0562368 38.5632463,15.3169775 C39.085849,16.2988788 39.4555019,17.2758012 39.6588729,18.9218922 L26.3090679,38.4357735 C25.5728404,39.5109877 24.3636749,40.1540952 23.0705103,40.1540952 C21.7773457,40.1540952 20.5681801,39.5109877 19.8316144,38.4352793 L8.72069227,22.1932894 C7.71715345,20.7945864 7.83815252,18.868568 9.04028416,17.5789364 C9.76540216,16.8465812 10.7742093,16.4770257 11.7952581,16.5720277 C12.8147949,16.666889 13.7388579,17.214878 14.3204667,18.066086 L23.070613,30.85651 L35.821974,12.2174005 Z" fill="#EFEFEF"></path>
                    <path d="M35.821974,12.2174005 L23.070613,30.85651 L14.3204667,18.066086 C13.7388579,17.214878 12.8147949,16.666889 11.7952581,16.5720277 C10.7742093,16.4770257 9.76540216,16.8465812 9.04028416,17.5789364 C7.83815252,18.868568 7.71715345,20.7945864 8.72069227,22.1932894 L19.8316144,38.4352793 C20.5681801,39.5109877 21.7773457,40.1540952 23.0705103,40.1540952 C24.3636749,40.1540952 25.5728404,39.5109877 26.3090679,38.4357735 L39.6588729,18.9218922 C39.7803314,19.904981 39.8424806,21.1267483 39.8424806,22.7307998 L39.8424806,31.9322318 C39.8424806,36.2221189 39.3979611,37.7777356 38.5632463,39.3460542 C37.7285315,40.9143728 36.5036215,42.1451984 34.9428406,42.9839443 C33.3820596,43.8226903 31.8339195,44.2693566 27.5646505,44.2693566 L18.4074425,44.2693566 C14.1381735,44.2693566 12.5900334,43.8226903 11.0292525,42.9839443 C9.46847152,42.1451984 8.24356151,40.9143728 7.40884673,39.3460542 C6.57413195,37.7777356 6.1296124,36.2221189 6.1296124,31.9322318 L6.1296124,22.7307998 C6.1296124,18.4409128 6.57413195,16.8852961 7.40884673,15.3169775 C8.24356151,13.7486589 9.46847152,12.5178333 11.0292525,11.6790873 C12.5900334,10.8403413 14.1381735,10.393675 18.4074425,10.393675 L27.5646505,10.393675 C31.8339195,10.393675 33.3820596,10.8403413 34.9428406,11.6790873 C35.2489402,11.8435818 35.5421213,12.0231567 35.821974,12.2174005 Z M35.821974,12.2174005 L43.1386922,1.52229796 C43.720314,0.670844177 44.6445587,0.122717444 45.664288,0.0279033475 C46.685329,-0.0670327207 47.6940986,0.302589072 48.4493056,1.06639079 C49.6210632,2.32437896 49.7421342,4.25012877 48.7571741,5.62258398 L39.6588729,18.9218922 C39.4555019,17.2758012 39.085849,16.2988788 38.5632463,15.3169775 C37.8922354,14.0562368 36.969071,13.0135921 35.821974,12.2174005 L35.821974,12.2174005 Z" fill="#198EFF"></path>
                </g>
            </g>
        </g>
    </g>
</svg>