<?xml version="1.0" encoding="UTF-8"?>
<svg width="64px" height="64px" viewBox="0 0 64 64" version="1.1" xmlns="http://www.w3.org/2000/svg" xmlns:xlink="http://www.w3.org/1999/xlink">
    <title>appicon-blaster</title>
    <defs>
        <path d="M19.229139,-7.76880231e-16 L44.770861,7.76880231e-16 C51.4572515,-4.51389787e-16 53.8818983,0.696192084 56.3263428,2.00349528 C58.7707872,3.31079847 60.6892015,5.22921278 61.9965047,7.67365722 C63.3038079,10.1181017 64,12.5427485 64,19.229139 L64,44.770861 C64,51.4572515 63.3038079,53.8818983 61.9965047,56.3263428 C60.6892015,58.7707872 58.7707872,60.6892015 56.3263428,61.9965047 C53.8818983,63.3038079 51.4572515,64 44.770861,64 L19.229139,64 C12.5427485,64 10.1181017,63.3038079 7.67365722,61.9965047 C5.22921278,60.6892015 3.31079847,58.7707872 2.00349528,56.3263428 C0.696192084,53.8818983 3.00926524e-16,51.4572515 -5.17920154e-16,44.770861 L5.17920154e-16,19.229139 C-3.00926524e-16,12.5427485 0.696192084,10.1181017 2.00349528,7.67365722 C3.31079847,5.22921278 5.22921278,3.31079847 7.67365722,2.00349528 C10.1181017,0.696192084 12.5427485,4.51389787e-16 19.229139,-7.76880231e-16 Z" id="path-1"></path>
    </defs>
    <g id="appicon-blaster" stroke="none" stroke-width="1" fill="none" fill-rule="evenodd">
        <g id="mathematical-logo-copy-3">
            <g id="Dubbble-Copy-7">
                <mask id="mask-2" fill="white">
                    <use xlink:href="#path-1"></use>
                </mask>
                <use id="Combined-Shape-Copy" fill="#000000" fill-rule="nonzero" xlink:href="#path-1"></use>
            </g>
            <polygon id="Rectangle-12-Copy-5" fill="#FFFFFF" fill-rule="nonzero" points="32 10 46 42 32 32 18 42"></polygon>
            <polygon id="Rectangle-14-Copy-8" fill="#FFFFFF" fill-rule="nonzero" points="21 44 32 36 43 44 36 43 40 49 35 48 32 58 29 48 24 49 28 43"></polygon>
        </g>
    </g>
</svg>