<?xml version="1.0" encoding="UTF-8"?>
<svg width="64px" height="64px" viewBox="0 0 64 64" version="1.1" xmlns="http://www.w3.org/2000/svg" xmlns:xlink="http://www.w3.org/1999/xlink">
    <title>appicon-mathematical</title>
    <defs>
        <path d="M19.229139,-7.76880231e-16 L44.770861,7.76880231e-16 C51.4572515,-4.51389787e-16 53.8818983,0.696192084 56.3263428,2.00349528 C58.7707872,3.31079847 60.6892015,5.22921278 61.9965047,7.67365722 C63.3038079,10.1181017 64,12.5427485 64,19.229139 L64,44.770861 C64,51.4572515 63.3038079,53.8818983 61.9965047,56.3263428 C60.6892015,58.7707872 58.7707872,60.6892015 56.3263428,61.9965047 C53.8818983,63.3038079 51.4572515,64 44.770861,64 L19.229139,64 C12.5427485,64 10.1181017,63.3038079 7.67365722,61.9965047 C5.22921278,60.6892015 3.31079847,58.7707872 2.00349528,56.3263428 C0.696192084,53.8818983 3.00926524e-16,51.4572515 -5.17920154e-16,44.770861 L5.17920154e-16,19.229139 C-3.00926524e-16,12.5427485 0.696192084,10.1181017 2.00349528,7.67365722 C3.31079847,5.22921278 5.22921278,3.31079847 7.67365722,2.00349528 C10.1181017,0.696192084 12.5427485,4.51389787e-16 19.229139,-7.76880231e-16 Z" id="path-1"></path>
    </defs>
    <g id="appicon-mathematical" stroke="none" stroke-width="1" fill="none" fill-rule="evenodd">
        <g id="Mathematical-Copy-4">
            <mask id="mask-2" fill="white">
                <use xlink:href="#path-1"></use>
            </mask>
            <use id="Combined-Shape-Copy" fill="#6321B3" fill-rule="nonzero" xlink:href="#path-1"></use>
            <path d="M54.16,44.8 L35.44,44.8 C34.8656239,44.8 34.4,44.3522847 34.4,43.8 L34.4,41.8 C34.4,41.2477153 34.8656239,40.8 35.44,40.8 L54.16,40.8 C54.7343761,40.8 55.2,41.2477153 55.2,41.8 L55.2,43.8 C55.2,44.3522847 54.7343761,44.8 54.16,44.8 Z M46.5966355,21.4448985 L20.2151003,47.6156376 C19.40565,48.4186217 18.4213663,48.7440953 18.0166411,48.3426032 L16.5509986,46.888675 C16.1462764,46.4871799 16.474371,45.5107591 17.2837974,44.7077511 L43.6653325,18.5370119 C44.4747829,17.7340279 45.4590666,17.4085543 45.8637918,17.8100463 L47.3294343,19.2639746 C47.7341565,19.6654696 47.4060619,20.6418904 46.5966355,21.4448985 Z M29.36,23.04 L22.08,23.04 L22.08,30.18 C22.08,30.7433304 21.6143761,31.2 21.04,31.2 L18.96,31.2 C18.3856239,31.2 17.92,30.7433304 17.92,30.18 L17.92,23.04 L10.64,23.04 C10.0656239,23.04 9.6,22.5833304 9.6,22.02 L9.6,19.98 C9.6,19.4166696 10.0656239,18.96 10.64,18.96 L17.92,18.96 L17.92,11.82 C17.92,11.2566696 18.3856239,10.8 18.96,10.8 L21.04,10.8 C21.6143761,10.8 22.08,11.2566696 22.08,11.82 L22.08,18.96 L29.36,18.96 C29.9343761,18.96 30.4,19.4166696 30.4,19.98 L30.4,22.02 C30.4,22.5833304 29.9343761,23.04 29.36,23.04 Z" id="Shape" fill="#FFFFFF" fill-rule="nonzero" mask="url(#mask-2)"></path>
        </g>
    </g>
</svg>