<?xml version="1.0" encoding="UTF-8"?>
<svg width="64px" height="64px" viewBox="0 0 64 64" version="1.1" xmlns="http://www.w3.org/2000/svg" xmlns:xlink="http://www.w3.org/1999/xlink">
    <title>appicon-milkjar</title>
    <g id="appicon-milkjar" stroke="none" stroke-width="1" fill="none" fill-rule="evenodd">
        <g id="milkjar-logo-copy-3" fill-rule="nonzero">
            <path d="M19.229139,-7.76880231e-16 L44.770861,7.76880231e-16 C51.4572515,-4.51389787e-16 53.8818983,0.696192084 56.3263428,2.00349528 C58.7707872,3.31079847 60.6892015,5.22921278 61.9965047,7.67365722 C63.3038079,10.1181017 64,12.5427485 64,19.229139 L64,44.770861 C64,51.4572515 63.3038079,53.8818983 61.9965047,56.3263428 C60.6892015,58.7707872 58.7707872,60.6892015 56.3263428,61.9965047 C53.8818983,63.3038079 51.4572515,64 44.770861,64 L19.229139,64 C12.5427485,64 10.1181017,63.3038079 7.67365722,61.9965047 C5.22921278,60.6892015 3.31079847,58.7707872 2.00349528,56.3263428 C0.696192084,53.8818983 3.00926524e-16,51.4572515 -5.17920154e-16,44.770861 L5.17920154e-16,19.229139 C-3.00926524e-16,12.5427485 0.696192084,10.1181017 2.00349528,7.67365722 C3.31079847,5.22921278 5.22921278,3.31079847 7.67365722,2.00349528 C10.1181017,0.696192084 12.5427485,4.51389787e-16 19.229139,-7.76880231e-16 Z" id="Combined-Shape-Copy" fill="#006FFF"></path>
            <path d="M42.650281,50.7260102 C39.9921865,50.7260102 37.8998475,49.8819657 36.779372,48.2115378 C36.5343829,47.8487533 36.3453073,47.4535903 36.2136165,47.0363513 C35.8560649,45.8994301 35.974513,44.7470556 36.3055793,43.6233801 L39.7442546,33.352088 C39.7479331,33.3373706 39.7494045,33.3219173 39.7574973,33.3042564 C39.9355373,32.7104082 39.9980721,32.0186892 39.8494601,31.4138029 C39.6059425,30.4255277 38.3699616,30.189313 37.4885896,30.4343582 C35.3903649,31.0193759 34.8812585,32.8656771 34.3743593,34.541992 L34.3743593,34.5441996 L29.6894033,48.5397364 C29.3899722,49.4330842 28.5578923,49.9989693 27.6625419,49.9989693 C27.4396239,49.9989693 27.2071418,49.9636475 26.9820167,49.8871168 C25.8674268,49.5147659 25.2619434,48.30205 25.6364161,47.181318 L30.2713443,33.352088 C30.2757585,33.3373706 30.2764942,33.3219173 30.2845869,33.3042564 C30.462627,32.7104082 30.5258975,32.0186892 30.3765498,31.4138029 C30.1330321,30.4255277 28.7513821,30.189313 27.8707458,30.4343582 C25.7673712,31.0201118 25.2597363,32.8737716 24.7521013,34.55303 L20.7123567,46.7074168 C20.1120232,48.5794735 18.7318446,49.7421502 17,50.3080352 L17,51.3242736 C17,52.6017462 17.4554001,53.9461831 18.3757644,54.8822114 C19.2792075,55.8094093 20.7248637,56 21.9615802,56 L42.657638,56 C43.8965617,56 45.3370679,55.8094093 46.2478681,54.8822114 C47.1645539,53.9461831 47.6206897,52.6017462 47.6206897,51.3242736 L47.6206897,48.8075936 C46.2662606,49.9584964 44.6638998,50.7260102 42.650281,50.7260102" id="Fill-1" fill="#FFFFFF"></path>
            <path d="M17.0019143,44.2811608 L20.6564669,33.2687909 C20.7734303,32.8572927 21.2236288,31.4384352 22.1600711,29.9834425 C23.7468002,27.5218279 25.9014267,26.2180129 28.3870816,26.2180129 C30.9323216,26.2180129 32.5190506,27.3551638 32.9045147,28.7209248 L32.9258476,28.8057318 C34.4323943,27.1162293 36.3655997,26.2180129 38.4142972,26.2180129 C41.8797958,26.2180129 43.52611,27.5380519 44.2580504,30.428126 C44.6133541,31.8314971 44.280119,33.1235129 43.8468397,34.47305 C43.414296,35.8218496 40.5726018,44.2708365 40.5726018,44.2708365 C40.390904,44.8187633 40.3482382,45.6542964 40.7403228,46.0938177 C41.5075729,46.9566365 42.5153702,46.9522118 43.5842239,46.8504434 C44.5699526,46.7575245 45.6704379,46.2604819 46.2817369,45.4640338 C47.1026871,44.4006281 47.5455294,43.0481412 47.6190913,41.7111408 L47.6190913,29.0756392 C47.6308612,27.6648936 47.592609,26.3913141 46.9820456,25.2150782 C45.9168701,23.1509502 42.5595073,21.4798841 40.8940671,19.9422968 C40.6366006,19.7026249 40.3438244,19.3641345 40.0488414,18.9688602 C40.0253016,18.9400996 40.0010262,18.9083892 39.9782221,18.8766788 C39.5037481,18.2306708 39.0314811,17.4261108 38.6739705,16.5736163 C38.6739705,16.5706665 38.6702924,16.5699291 38.6702924,16.5699291 C38.584225,16.3545931 38.5069851,16.1318826 38.4378369,15.9128594 C38.3591258,15.6753999 38.2958626,15.4526894 38.2502542,15.2506275 C38.1950828,15.0116931 38.1553595,14.8029942 38.1325553,14.6252683 C38.1016593,14.4055076 38.0729702,14.1827971 38.0729702,13.970411 C41.0088236,13.9298511 43.4054686,13.9047777 43.4054686,11.9387308 L43.4054686,10.0582284 C43.4054686,8.71680329 42.2807079,8 40.9455604,8 L23.6732383,8 C22.339562,8 21.2184795,8.71680329 21.2184795,10.0582284 L21.2184795,11.9387308 C21.2184795,13.9047777 23.6143889,13.9298511 26.5480354,13.970411 C26.4582899,15.0146429 26.1949385,15.9394077 25.8808294,16.7122573 C25.2805647,18.0868677 24.3948801,19.3228372 23.7262029,19.9422968 C22.0629695,21.4798841 18.7019286,23.1509502 17.6360174,25.2150782 C17.0283966,26.3913141 16.9886732,27.6648936 17.0019143,29.0756392 L17.0019143,44.2811608 Z" id="Fill-3" fill="#FFFFFF"></path>
        </g>
    </g>
</svg>