<?xml version="1.0" encoding="UTF-8"?>
<svg width="1024px" height="1024px" viewBox="0 0 1024 1024" version="1.1" xmlns="http://www.w3.org/2000/svg" xmlns:xlink="http://www.w3.org/1999/xlink">
    <title>prologue logo copy 2</title>
    <defs>
        <path d="M281.575271,969.373429 C277.215503,967.176066 272.880596,964.912412 268.572047,962.582466 L943.679336,236.485264 C960.073906,262.118515 973.958705,288.892997 985.333734,316.459298 L281.575271,969.373429 L281.575271,969.373429 Z M370.394317,1004.12603 L992.554387,334.975081 C1059.29841,516.514848 1019.79317,728.284174 874.03867,874.038672 C737.669538,1010.4078 543.513464,1053.77026 370.394317,1004.12603 L370.394317,1004.12603 Z M192.253807,911.940517 C189.00836,909.339267 185.787236,906.69273 182.591282,904.000906 L879.00154,154.991751 C899.843226,176.405023 918.438111,199.190973 934.786202,223.05365 L192.25375,911.940517 L192.253807,911.940517 Z M118.708823,839.870728 C116.025589,836.659646 113.387844,833.423419 110.795586,830.162899 L800.191625,88.6977367 C824.089914,105.007315 846.91343,123.566126 868.365733,144.374168 L118.708824,839.870728 L118.708823,839.870728 Z M60.4460943,753.622874 C58.1237133,749.286573 55.8682529,744.923883 53.6797131,740.536316 L706.615266,38.2854554 C734.224378,49.6146464 761.044147,63.4581878 786.724201,79.8160774 L60.4460987,753.622874 L60.4460943,753.622874 Z M19.2790676,651.51442 C-29.4197012,478.924598 14.1410522,285.781604 149.961328,149.961328 C295.449142,4.47351326 506.710434,-35.153488 688.028131,31.0803243 L19.2790849,651.51442 L19.2790676,651.51442 Z" id="path-1"></path>
    </defs>
    <g id="Design" stroke="none" stroke-width="1" fill="none" fill-rule="evenodd">
        <g id="prologue-logo-copy-2">
            <mask id="mask-2" fill="white">
                <use xlink:href="#path-1"></use>
            </mask>
            <use id="Combined-Shape" fill="#FFFFFF" fill-rule="nonzero" xlink:href="#path-1"></use>
            <rect id="Rectangle-4" fill="#00C764" fill-rule="nonzero" mask="url(#mask-2)" x="-30.8433735" y="0" width="1084.45301" height="340.510843"></rect>
            <rect id="Rectangle-4-Copy" fill="#3C559C" fill-rule="nonzero" mask="url(#mask-2)" x="-30.8433735" y="340.510843" width="1084.45301" height="341.744578"></rect>
            <polygon id="Rectangle-4-Copy-2" fill="#FF0058" fill-rule="nonzero" mask="url(#mask-2)" points="-30.8433735 682.255422 1053.60964 682.255422 1053.60964 1024 -30.8433735 1024"></polygon>
        </g>
    </g>
</svg>