<?xml version="1.0" encoding="UTF-8"?>
<svg width="1968px" height="1312px" viewBox="0 0 1968 1312" version="1.1" xmlns="http://www.w3.org/2000/svg" xmlns:xlink="http://www.w3.org/1999/xlink">
    <title>app-background</title>
    <g id="app-background" stroke="none" stroke-width="1" fill="none" fill-rule="evenodd">
        <rect fill="#FF008F" x="0" y="0" width="1968" height="1312"></rect>
        <rect id="Rectangle" fill="#FF008D" fill-rule="nonzero" x="472" y="126" width="1280" height="967"></rect>
        <g id="Group-11-Copy" fill-rule="nonzero">
            <rect id="Rectangle-Copy-18" fill="#50E3C2" x="1640" y="0" width="200" height="200" rx="50"></rect>
            <rect id="Rectangle-Copy-25" fill="#006FFF" x="1640" y="656" width="200" height="200" rx="50"></rect>
            <rect id="Rectangle-Copy-21" fill="#535353" x="984" y="0" width="200" height="200" rx="50"></rect>
            <rect id="Rectangle-Copy-33" fill="#006FFF" x="328" y="0" width="200" height="200" rx="50"></rect>
            <rect id="Rectangle-Copy-26" fill="#FF723A" x="984" y="656" width="200" height="200" rx="50"></rect>
            <rect id="Rectangle-Copy-34" fill="#50E3C2" x="328" y="656" width="200" height="200" rx="50"></rect>
            <rect id="Rectangle-Copy-20" fill="#FF723A" x="1640" y="328" width="200" height="200" rx="50"></rect>
            <rect id="Rectangle-Copy-27" fill="#535353" x="1640" y="984" width="200" height="200" rx="50"></rect>
            <rect id="Rectangle-Copy-22" fill="#50E3C2" x="984" y="328" width="200" height="200" rx="50"></rect>
            <rect id="Rectangle-Copy-35" fill="#535353" x="328" y="328" width="200" height="200" rx="50"></rect>
            <rect id="Rectangle-Copy-28" fill="#006FFF" x="984" y="984" width="200" height="200" rx="50"></rect>
            <rect id="Rectangle-Copy-36" fill="#FF723A" x="328" y="984" width="200" height="200" rx="50"></rect>
            <rect id="Rectangle-Copy-20" fill="#FFD039" x="1312" y="328" width="200" height="200" rx="50"></rect>
            <rect id="Rectangle-Copy-29" fill="#FF0058" x="1312" y="984" width="200" height="200" rx="50"></rect>
            <rect id="Rectangle-Copy-23" fill="#00C764" x="656" y="328" width="200" height="200" rx="50"></rect>
            <rect id="Rectangle-Copy-37" fill="#FF0058" x="0" y="328" width="200" height="200" rx="50"></rect>
            <rect id="Rectangle-Copy-30" fill="#1C006B" x="656" y="984" width="200" height="200" rx="50"></rect>
            <rect id="Rectangle-Copy-38" fill="#FFD039" x="0" y="984" width="200" height="200" rx="50"></rect>
            <rect id="Rectangle-Copy-19" fill="#00C764" x="1312" y="0" width="200" height="200" rx="50"></rect>
            <rect id="Rectangle-Copy-31" fill="#1C006B" x="1312" y="656" width="200" height="200" rx="50"></rect>
            <rect id="Rectangle-Copy-24" fill="#FF0058" x="656" y="0" width="200" height="200" rx="50"></rect>
            <rect id="Rectangle-Copy-39" fill="#1C006B" x="0" y="0" width="200" height="200" rx="50"></rect>
            <rect id="Rectangle-Copy-32" fill="#FFD039" x="656" y="656" width="200" height="200" rx="50"></rect>
            <rect id="Rectangle-Copy-40" fill="#00C764" x="0" y="656" width="200" height="200" rx="50"></rect>
        </g>
    </g>
</svg>