<?xml version="1.0" encoding="UTF-8"?>
<svg width="2052px" height="1651px" viewBox="0 0 2052 1651" version="1.1" xmlns="http://www.w3.org/2000/svg" xmlns:xlink="http://www.w3.org/1999/xlink">
    <title>HomepageTeaser-04 Copy 2</title>
    <defs>
        <linearGradient x1="50%" y1="40.4417061%" x2="50%" y2="92.8265671%" id="linearGradient-1">
            <stop stop-color="#FFE436" offset="0%"></stop>
            <stop stop-color="#F7551C" offset="100%"></stop>
        </linearGradient>
        <path d="M1460.58892,1807.71509 C1744.89547,1807.71509 2065.38399,1617.19692 1943.40213,1434.95636 C1821.42028,1252.71579 1465.7262,913.509416 1345.95509,1083.11822 C1226.18398,1252.72702 1063.543,1188.16388 1098.89265,1039.83583 C1134.2423,891.507774 1238.98717,750.946762 1145.5081,689.049498 C1052.02903,627.152233 964.549902,339.695789 786.672093,640.974117 C608.794284,942.252446 783.561228,1605.22607 964.526017,1605.22266 C1145.49081,1605.21924 1345.94942,1383.50413 1420.91482,1521.54032 C1495.88021,1659.57651 1176.28236,1807.71509 1460.58892,1807.71509 Z" id="path-2"></path>
        <filter x="-1.0%" y="-0.8%" width="102.1%" height="102.0%" filterUnits="objectBoundingBox" id="filter-3">
            <feOffset dx="0" dy="2" in="SourceAlpha" result="shadowOffsetOuter1"></feOffset>
            <feGaussianBlur stdDeviation="4" in="shadowOffsetOuter1" result="shadowBlurOuter1"></feGaussianBlur>
            <feColorMatrix values="0 0 0 0 0   0 0 0 0 0   0 0 0 0 0  0 0 0 0.5 0" type="matrix" in="shadowBlurOuter1"></feColorMatrix>
        </filter>
        <radialGradient cx="50%" cy="34.1605588%" fx="50%" fy="34.1605588%" r="58.8171912%" gradientTransform="translate(0.500000,0.341606),scale(0.614912,1.000000),rotate(155.993942),translate(-0.500000,-0.341606)" id="radialGradient-4">
            <stop stop-color="#228EB9" offset="0%"></stop>
            <stop stop-color="#18B7F6" offset="100%"></stop>
        </radialGradient>
        <path d="M1841.08531,940.476557 C1586.85565,1007.24542 1734.50165,1109.71736 1586.85565,892.946922 C1439.20965,676.176485 1311.55864,676.176485 1130.74554,681.842583 C949.932446,687.508681 635.606304,896.066009 684.001128,608.322968 C732.395951,320.579928 769.191774,179.579716 1047.84499,236.393735 C1326.49821,293.207755 1299.76945,529.937695 1430.23267,529.937695 C1560.69589,529.937695 1848.16143,544.253454 1889.50932,624.116637 C1930.8572,703.97982 2095.31498,873.707696 1841.08531,940.476557 Z" id="path-5"></path>
        <filter x="-1.0%" y="-1.4%" width="102.0%" height="103.3%" filterUnits="objectBoundingBox" id="filter-6">
            <feOffset dx="0" dy="2" in="SourceAlpha" result="shadowOffsetOuter1"></feOffset>
            <feGaussianBlur stdDeviation="4" in="shadowOffsetOuter1" result="shadowBlurOuter1"></feGaussianBlur>
            <feColorMatrix values="0 0 0 0 0   0 0 0 0 0   0 0 0 0 0  0 0 0 0.5 0" type="matrix" in="shadowBlurOuter1"></feColorMatrix>
        </filter>
        <linearGradient x1="67.3708347%" y1="15.0500376%" x2="44.5956121%" y2="96.4658022%" id="linearGradient-7">
            <stop stop-color="#EA6CBE" offset="0%"></stop>
            <stop stop-color="#F31680" offset="100%"></stop>
        </linearGradient>
        <path d="M748.401871,1302 C1032.79206,1302 1353.37126,1111.48513 1231.35008,929.234503 C1109.3289,746.983876 753.523784,407.756343 633.720642,577.37011 C513.9175,746.983876 351.227459,682.414917 386.584708,534.081213 C421.941957,385.74751 526.714985,245.182487 433.207246,183.280823 C339.699507,121.379159 252.189222,-166.09118 74.2647743,135.196625 C-103.659673,436.484429 71.1711974,1099.48959 252.189222,1099.48959 C433.207246,1099.48959 633.720642,877.768815 708.710696,1015.8123 C783.700751,1153.85578 464.011684,1302 748.401871,1302 Z" id="path-8"></path>
        <filter x="-1.0%" y="-0.8%" width="102.1%" height="102.0%" filterUnits="objectBoundingBox" id="filter-9">
            <feOffset dx="0" dy="2" in="SourceAlpha" result="shadowOffsetOuter1"></feOffset>
            <feGaussianBlur stdDeviation="4" in="shadowOffsetOuter1" result="shadowBlurOuter1"></feGaussianBlur>
            <feColorMatrix values="0 0 0 0 0   0 0 0 0 0   0 0 0 0 0  0 0 0 0.5 0" type="matrix" in="shadowBlurOuter1"></feColorMatrix>
        </filter>
    </defs>
    <g id="HomepageTeaser-04-Copy-2" stroke="none" stroke-width="1" fill="none" fill-rule="evenodd">
        <rect id="Rectangle" fill="#6E39FF" fill-rule="nonzero" x="-19" y="0" width="2090" height="1651"></rect>
        <g id="TaniaArt" transform="translate(48.000000, 226.000000)" fill-rule="nonzero">
            <g id="Path-8-Copy" transform="translate(1341.232756, 1156.747745) rotate(-177.000000) translate(-1341.232756, -1156.747745) ">
                <use fill="black" fill-opacity="1" filter="url(#filter-3)" xlink:href="#path-2"></use>
                <use fill="url(#linearGradient-1)" style="mix-blend-mode: lighten;" xlink:href="#path-2"></use>
            </g>
            <g id="Path-7">
                <use fill="black" fill-opacity="1" filter="url(#filter-6)" xlink:href="#path-5"></use>
                <use fill="url(#radialGradient-4)" style="mix-blend-mode: lighten;" xlink:href="#path-5"></use>
            </g>
            <g id="Path-8">
                <use fill="black" fill-opacity="1" filter="url(#filter-9)" xlink:href="#path-8"></use>
                <use fill="url(#linearGradient-7)" style="mix-blend-mode: lighten;" xlink:href="#path-8"></use>
            </g>
        </g>
    </g>
</svg>