<?xml version="1.0" encoding="UTF-8"?>
<svg width="1137px" height="855px" viewBox="0 0 1137 855" version="1.1" xmlns="http://www.w3.org/2000/svg" xmlns:xlink="http://www.w3.org/1999/xlink">
    <title>LineArt</title>
    <g id="LineArt" stroke="none" stroke-width="1" fill="none" fill-rule="evenodd">
        <g id="Group-Copy" transform="translate(95.000000, 160.000000)" fill-rule="nonzero" stroke-width="5">
            <g id="TaniaArt">
                <path d="M782.77547,969.158925 C935.143504,969.158925 1106.90056,867.024225 1041.52515,769.319972 C976.149729,671.615719 785.519642,489.756411 721.332585,580.686065 C657.145528,671.615719 569.980912,637.000409 588.924303,557.478961 C607.867694,477.957513 664.002051,402.600842 613.90331,369.415464 C563.804569,336.230087 516.91909,182.117724 421.592319,343.637607 C326.265548,505.157489 419.93487,860.593435 516.91909,860.593435 C613.90331,860.593435 721.332585,741.729303 761.510087,815.73418 C801.687588,889.739057 630.407436,969.158925 782.77547,969.158925 Z" id="Path-8-Copy" stroke="#F7551C" transform="translate(718.803402, 620.158925) rotate(-177.000000) translate(-718.803402, -620.158925) "></path>
                <path d="M986.577605,504.210554 C850.376163,540.015356 929.476286,594.965934 850.376163,478.722787 C771.27604,362.47964 702.888065,362.47964 606.018942,365.518085 C509.149819,368.55653 340.752186,480.395397 366.679313,326.093192 C392.60644,171.790986 412.319498,96.1796227 561.605657,126.646141 C710.891817,157.112659 696.572102,284.059089 766.466695,284.059089 C836.361289,284.059089 990.368578,291.735915 1012.52036,334.562547 C1034.67215,377.389179 1122.77905,468.405752 986.577605,504.210554 Z" id="Path-7" stroke="#18B7F6"></path>
                <path d="M400.972068,698 C553.340102,698 725.097161,595.8653 659.721744,498.161047 C594.346328,400.456794 403.71624,218.597486 339.529183,309.52714 C275.342126,400.456794 188.17751,365.841484 207.120901,286.320036 C226.064292,206.798588 282.198649,131.441917 232.099908,98.2565395 C182.001167,65.0711618 135.115688,-89.0412007 39.7889172,72.478682 C-55.5378535,233.998565 38.1314683,589.43451 135.115688,589.43451 C232.099908,589.43451 339.529183,470.570379 379.706685,544.575255 C419.884186,618.580132 248.604034,698 400.972068,698 Z" id="Path-8" stroke="#F31680"></path>
            </g>
        </g>
    </g>
</svg>