<?xml version="1.0" encoding="UTF-8"?>
<svg width="81px" height="97px" viewBox="0 0 81 97" version="1.1" xmlns="http://www.w3.org/2000/svg" xmlns:xlink="http://www.w3.org/1999/xlink">
    <title>PostageShape Copy 2</title>
    <g id="Design" stroke="none" stroke-width="1" fill="none" fill-rule="evenodd">
        <g id="Artboard" transform="translate(-751.000000, -671.000000)" fill-rule="nonzero">
            <g id="PostageShape-Copy-2" transform="translate(751.000000, 671.000000)">
                <g id="OuterShapeCut">
                    <path d="M79.9565823,53 C80.0460179,53.2278857 80.0943138,53.4743205 80.0943138,53.7290738 L80.0943138,58.4146738 C80.0943138,59.2087098 79.6251209,59.9219327 78.9086412,60.241007 L78.7621138,60.2994738 C77.1622248,60.8635474 76.0921507,62.3754587 76.0921507,64.0718736 C76.0921507,65.6976048 77.0749097,67.1538872 78.5649262,67.7688831 L78.7621138,67.8442738 C79.5604766,68.1270776 80.0943138,68.882102 80.0943138,69.7290738 L80.0943138,74.4146738 C80.0943138,75.2087098 79.6251209,75.9219327 78.9086412,76.241007 L78.7621138,76.2994738 C77.1622248,76.8635474 76.0921507,78.3754587 76.0921507,80.0718736 C76.0921507,81.6976048 77.0749097,83.1538872 78.5649262,83.7688831 L78.7621138,83.8442738 C79.5605977,84.127145 80.0943138,84.8821539 80.0943138,85.7290738 L80.0943138,90.4146738 C80.0943138,91.2087098 79.6251209,91.9219327 78.9086412,92.241007 L78.7621138,92.2994738 C77.696805,92.6829534 76.8439311,93.493213 76.4044406,94.529304 L76.3221138,94.7394738 C76.0392426,95.5377577 75.2842337,96.0714739 74.4373138,96.0714739 L69.7513138,96.0714739 C68.9045407,96.0714739 68.149736,95.5376194 67.8669138,94.7394738 C67.3028401,93.1395847 65.7909288,92.0695107 64.0945138,92.0695107 C62.4687827,92.0695107 61.0125004,93.0522696 60.3975044,94.5422862 L60.3221138,94.7394738 C60.0397425,95.5379606 59.2846581,96.0714739 58.4377138,96.0714739 L53.7509138,96.0714739 C52.957064,96.0714739 52.2440458,95.6022658 51.9249812,94.8859631 L51.8665138,94.7394738 C51.302273,93.1398777 49.7905081,92.0700778 48.0943138,92.0700778 C46.4687942,92.0700778 45.0126551,93.052585 44.3975237,94.5423227 L44.3221138,94.7394738 C44.2957209,94.8139565 44.2652178,94.886136 44.2309133,94.9557937 C40.8444534,90.5633246 37.733875,86.2264293 35,82.0716426 L62.0943138,82.0718738 C64.3034528,82.0718738 66.0943138,80.2810128 66.0943138,78.0718738 L66.0934878,57.0004142 L72.6090744,55.0804402 L74.3460839,54.5761087 L76.0215324,54.096072 C77.3927562,53.7060681 78.7023552,53.341011 79.9565823,53 Z" id="Path" fill="#F7551C"></path>
                    <path d="M10.4373138,0.0718735752 C11.23137,0.0718735752 11.9446702,0.54089935 12.2638299,1.25735024 L12.3223138,1.40387375 C12.886471,3.00361629 14.3983091,4.07355323 16.0946138,4.07355323 C17.7909185,4.07355323 19.3027566,3.00361629 19.8669138,1.40387375 C20.044912,0.900758495 20.4105472,0.502909766 20.8685634,0.277370516 C19.8557321,4.36026739 18.8631544,8.92539676 17.8507115,14.0779525 C16.1851501,14.1793469 14.7945911,15.2983327 14.2937419,16.8211473 C10.8446034,18.3550928 7.82628771,20.8079485 5.29207109,24.238305 L4.94631449,24.7166509 C3.98672906,26.073415 3.00615091,27.3547349 2.00891405,28.5602265 C1.88600183,28.4923195 1.75852562,28.4309772 1.62699258,28.3763528 L1.42671379,28.2994738 C0.628272091,28.0167373 0.0943137877,27.2616974 0.0943137877,26.4146738 L0.0943137877,21.7290738 C0.0943137877,20.9349891 0.563613078,20.2217495 1.28017117,19.9027288 L1.42671379,19.8442738 C3.02562226,19.2792724 4.09467244,17.7676729 4.09467244,16.0718736 C4.09467244,14.4467329 3.11285378,12.9907615 1.62377866,12.374974 L1.42671379,12.2994738 C0.628272091,12.0167373 0.0943137877,11.2616974 0.0943137877,10.4146738 L0.0943137877,5.72907375 C0.0943137877,4.93498911 0.563613078,4.22174952 1.28017117,3.9027288 L1.42671379,3.84427375 C2.49215257,3.46099907 3.34510487,2.65068203 3.78442455,1.61446876 L3.86671379,1.40427375 C4.14949927,0.605693712 4.90474337,0.0718735752 5.75191379,0.0718735752 L10.4373138,0.0718735752 Z" id="Path" fill="#F31680"></path>
                    <path d="M79.2697711,20.1123312 C79.7790337,20.4815816 80.0943138,21.078176 80.0943138,21.7290738 L80.0943138,26.4146738 C80.0943138,27.2087098 79.6251209,27.9219327 78.9086412,28.241007 L78.7621138,28.2994738 C77.1622248,28.8635474 76.0921507,30.3754587 76.0921507,32.0718736 C76.0921507,33.6976048 77.0749097,35.1538872 78.5649262,35.7688831 L78.7621138,35.8442738 C79.5604766,36.1270776 80.0943138,36.882102 80.0943138,37.7290738 L80.0943138,42.4146738 C80.0943138,43.049454 79.7944543,43.6325868 79.3081107,44.0039842 C74.898099,40.1740981 70.4572608,36.5891033 66.0936429,33.3699146 L66.0939776,24.6527899 C70.3107611,22.938384 74.7258061,21.418626 79.2697711,20.1123312 Z" id="Path" fill="#18B7F6"></path>
                    <path d="M22.9504878,14.0714142 L22.9841901,13.905694 C24.0257761,8.69139639 25.0451389,4.11977882 26.0870047,0.0714142364 L26.4373138,0.0718735752 C27.23137,0.0718735752 27.9446702,0.54089935 28.2638299,1.25735024 L28.3223138,1.40387375 C28.886638,3.00332336 30.3983298,4.07298623 32.0944138,4.07298623 C33.7198276,4.07298623 35.1758951,3.09060488 35.7910942,1.6010066 L35.9249977,1.25734508 L35.9939919,1.11742472 C36.3396229,0.480447139 37.0103947,0.0718735752 37.7515138,0.0718735752 L42.4373138,0.0718735752 C43.2313012,0.0718735752 43.9445074,0.540960142 44.2636354,1.25736163 L44.3221138,1.40387375 C44.8863546,3.00346981 46.3981195,4.0732697 48.0943138,4.0732697 C49.7198333,4.0732697 51.1759724,3.09076251 51.7911039,1.60102484 L51.8665138,1.40387375 C51.9903958,1.05426935 52.2048334,0.755284293 52.4778904,0.529649809 C52.8282216,0.24047584 53.2750449,0.0718735752 53.7509138,0.0718735752 L58.4373138,0.0718735752 C59.2313241,0.0718735752 59.9445981,0.540781775 60.2633225,1.25732819 L60.3217138,1.40387375 C60.8857875,3.00376279 62.3976987,4.07383682 64.0941138,4.07383682 C65.7198449,4.07383682 67.1761272,3.09107786 67.7911231,1.60106135 L67.8665138,1.40387375 C67.9903958,1.05426935 68.2048334,0.755284293 68.4778904,0.529649809 C68.8282216,0.24047584 69.2750449,0.0718735752 69.7509138,0.0718735752 L74.4369138,0.0718735752 C75.2309012,0.0718735752 75.9441074,0.540960142 76.2632354,1.25736163 L76.3217138,1.40387375 C76.7051934,2.46918251 77.515453,3.32205647 78.551544,3.76154697 L78.7617138,3.84387375 C79.5603727,4.12659183 80.0943138,4.88185147 80.0943138,5.72907375 L80.0943138,10.4146738 C80.0943138,11.2087098 79.6251209,11.9219327 78.9086412,12.241007 L78.7621138,12.2994738 C78.6427503,12.3415578 78.526336,12.3889177 78.4130951,12.4412366 C78.3376834,12.4760761 78.2636136,12.5131501 78.19102,12.5523333 C78.1023052,12.6003137 78.0186277,12.6496308 77.9371228,12.7017369 C77.7320334,12.8328735 77.5409327,12.9814541 77.3652955,13.1451896 C77.1445831,13.3518461 76.9534698,13.5750753 76.7886795,13.8164162 C76.7307974,13.9011909 76.6762104,13.9881181 76.6250027,14.0770817 C76.5708537,14.1711116 76.5201371,14.2681444 76.4734181,14.3672523 C76.4346786,14.449438 76.3987223,14.5329628 76.3656035,14.6177783 C76.3253462,14.7208388 76.289141,14.826268 76.2573335,14.9333777 C76.2334006,15.0139889 76.2120143,15.0953088 76.1931767,15.1774724 C76.1555238,15.3416486 76.1280175,15.5094862 76.1113034,15.6798836 L76.0991488,15.8346101 C72.6807059,16.8656442 69.3365558,18.0143549 66.0939047,19.2733361 L66.0943138,18.0718738 C66.0943138,15.8627348 64.3034528,14.0718738 62.0943138,14.0718738 L22.9504878,14.0714142 Z" id="Path" fill="#18B7F6"></path>
                    <path d="M76.1001611,47.8390286 L76.0939964,47.9553657 L76.0921507,48.0718736 C76.0921507,48.1791833 76.0964325,48.2857548 76.1048594,48.3913948 L76.1314882,48.6326334 L76.1314882,48.6326334 L76.1452454,48.7226287 L76.1452454,48.7226287 L76.1700047,48.858372 L73.8206492,49.5244596 L72.1876348,49.9954786 L70.4990509,50.4882902 L70.4990509,50.4882902 L66.0934878,51.7874142 L66.0937043,39.6313497 C69.4126938,42.186351 72.7647563,44.9409192 76.1001611,47.8390286 Z" id="Path" fill="#F7551C"></path>
                    <path d="M28.3977333,94.5423409 L28.3223138,94.7394738 C28.039418,95.5378268 27.2843071,96.0714739 26.4373138,96.0714739 L21.7519138,96.0714739 C20.9047873,96.0714739 20.1494588,95.5380924 19.8669138,94.7394738 C19.3027566,93.1397312 17.7909185,92.0697943 16.0946138,92.0697943 C14.4689885,92.0697943 13.0127778,93.0524273 12.3977141,94.5423044 L12.3223138,94.7394738 C12.039418,95.5378268 11.2843071,96.0714739 10.4373138,96.0714739 L5.75191379,96.0714739 C4.95785758,96.0714739 4.24455733,95.6024482 3.92539766,94.8859973 L3.86691379,94.7394738 C3.4836391,93.674035 2.67332206,92.8210827 1.63710879,92.381763 L1.42691379,92.2994738 C0.628393196,92.0168047 0.0943137877,91.2617492 0.0943137877,90.4146738 L0.0943137877,85.7290738 C0.0943137877,84.9349891 0.563613078,84.2217495 1.28017117,83.9027288 L1.42671379,83.8442738 C3.02562226,83.2792724 4.09467244,81.7676729 4.09467244,80.0718736 C4.09467244,78.4467329 3.11285378,76.9907615 1.62377866,76.374974 L1.42671379,76.2994738 C0.628272091,76.0167373 0.0943137877,75.2616974 0.0943137877,74.4146738 L0.0943137877,69.7290738 C0.0943137877,68.9349891 0.563613078,68.2217495 1.28017117,67.9027288 L1.42671379,67.8442738 C3.02562226,67.2792724 4.09467244,65.7676729 4.09467244,64.0718736 C4.09467244,62.4467329 3.11285378,60.9907615 1.62377866,60.374974 L1.42671379,60.2994738 C0.628272091,60.0167373 0.0943137877,59.2616974 0.0943137877,58.4146738 L0.0943137877,53.7290738 C0.0943137877,52.9349891 0.563613078,52.2217495 1.28017117,51.9027288 L1.42671379,51.8442738 C3.02562226,51.2792724 4.09467244,49.7676729 4.09467244,48.0718736 C4.09467244,46.4467329 3.11285378,44.9907615 1.62377866,44.374974 L1.42671379,44.2994738 C0.628272091,44.0167373 0.0943137877,43.2616974 0.0943137877,42.4146738 L0.093487841,37.7995447 C3.21535708,34.9761411 6.22351944,31.569803 9.02850188,27.6038201 C10.4786143,25.5534967 12.1719918,23.9251348 14.0934527,22.7074934 L14.0943138,78.0718738 C14.0943138,80.2810128 15.8851748,82.0718738 18.0943138,82.0718738 L29.0524878,82.0714142 L29.6642803,83.0349432 C32.3485631,87.2261855 35.4245688,91.6135197 38.7918657,96.0714739 L37.7515138,96.0714739 C36.9574576,96.0714739 36.2441573,95.6024482 35.9249977,94.8859973 L35.8665138,94.7394738 C35.3021895,93.1400241 33.7904978,92.0703613 32.0944138,92.0703613 C30.469,92.0703613 29.0129325,93.0527426 28.3977333,94.5423409 Z" id="Path" fill="#F31680"></path>
                </g>
                <g id="InnerShapeCut" transform="translate(18.093026, 18.070483)">
                    <path d="M43.0012874,0.00139061213 C43.5535721,0.00139061213 44.0013589,0.449105862 44.0013589,1.00139061 L44.0013589,2.83390532 C41.0417671,4.10061703 38.1815975,5.46171994 35.4433186,6.91111666 C30.5329545,3.9950033 25.8454648,1.67760404 21.4185667,0 L43.0012874,0.00139061213 Z" id="Path" fill="#F31680"></path>
                    <path d="M44.0009299,8.29352998 L44.0013949,12.4351133 C42.7858966,11.5905966 41.5816116,10.7780177 40.3890369,9.99793277 C41.1772922,9.60778504 41.9755299,9.22526188 42.7829687,8.85030289 L44.0009299,8.29352998 Z" id="Path" fill="#F31680"></path>
                    <path d="M43.8035901,18.4250072 L44.001054,18.5687589 L44.001054,34.8904651 L40.414382,35.9187848 C25.1095602,40.2501084 18.0901515,41.4201642 11.6030851,40.437427 L11.3729603,40.40163 C10.9425002,40.3329247 10.5244118,40.2516683 10.1187616,40.1574922 C12.1897524,31.0713206 19.7156499,22.3130454 31.9705642,14.6686915 C33.0574343,13.9907252 34.171827,13.3285975 35.311749,12.6828558 C38.0569294,14.4000416 40.8895763,16.315581 43.8035901,18.4250072 Z" id="Path" fill="#F31680"></path>
                    <path d="M30.396435,9.76837441 L29.6496666,10.2243439 L29.6496666,10.2243439 L29.3242964,10.426373 C16.4406263,18.4629314 8.12986595,28.004504 5.43670331,38.0914522 C0.740274228,34.6201078 -0.691156811,27.4136177 1.41574757,14.9593542 L1.92840424,11.9543849 C2.53490823,8.43052351 3.12303848,5.12813777 3.69985119,2.02811884 C10.8949303,1.23750058 19.9244622,3.91439818 30.396435,9.76837441 Z" id="Path" fill="#F7551C"></path>
                    <path d="M43.9995455,40.1070432 L44.0012874,59.0013906 C44.0012874,59.5536754 43.5535721,60.0013906 43.0012874,60.0013906 L14.3570324,60.0005359 C14.034729,59.4772387 13.7193559,58.9577211 13.4111359,58.442262 C10.7707946,54.0266233 9.5056008,49.5660629 9.53461624,45.1482372 C9.8783512,45.2187202 10.2285307,45.2822558 10.5848909,45.3391341 C15.3837859,46.1050802 21.1868999,45.6482501 28.451691,44.136624 L30.5322313,43.686525 L31.9481388,43.3626325 C35.2477165,42.5900397 38.6112226,41.6752046 43.9995455,40.1070432 Z" id="Path" fill="#18B7F6"></path>
                    <path d="M4.54482186,43.4429198 L4.52792638,43.6954987 C4.21548925,49.0752516 5.50185888,54.5566181 8.53786515,60.0010473 L1.00128737,60.0013906 C0.449002623,60.0013906 0.00128737241,59.5536754 0.00128737241,59.0013906 L0,39.8701334 C1.25566673,41.3433012 2.77190831,42.5322325 4.54482186,43.4429198 Z" id="Path" fill="#18B7F6"></path>
                </g>
            </g>
        </g>
    </g>
</svg>