<?xml version="1.0" encoding="UTF-8"?>
<svg width="900px" height="840px" viewBox="0 0 900 840" version="1.1" xmlns="http://www.w3.org/2000/svg" xmlns:xlink="http://www.w3.org/1999/xlink">
    <title>swift-background</title>
    <g id="swift-background" stroke="none" stroke-width="1" fill="none" fill-rule="evenodd">
        <rect fill="#FF0054" x="0" y="0" width="900" height="840"></rect>
        <g id="Group-Copy" transform="translate(100.000000, 100.000000)" fill="#FFD039" fill-rule="nonzero">
            <path d="M626.286841,621.319319 C590.948689,641.822207 542.359676,643.928772 493.475357,622.885934 C453.894658,605.972573 421.052968,576.366585 400,542.539862 C410.105485,550.996543 421.894965,557.764929 434.526443,563.681564 C485.00995,587.446966 535.482858,585.819512 571.002736,563.742403 C570.98002,563.719589 570.964877,563.704379 570.949733,563.681564 C520.422308,524.774749 477.474375,474.027059 445.47544,432.587803 C438.735673,425.820937 433.682931,417.362736 428.630188,409.750962 C467.367376,445.273584 528.844555,490.097034 550.734977,502.78966 C504.425112,453.730265 463.158145,392.837601 464.839112,394.525895 C538.105014,468.955332 606.320445,511.246341 606.320445,511.246341 C608.576877,512.523969 610.318418,513.588659 611.719224,514.539275 C613.195748,510.767231 614.490547,506.850692 615.580903,502.78966 C627.370383,459.654505 613.899937,410.595109 584.422451,370 C652.63031,411.443059 693.056793,489.252887 676.20927,554.381497 C675.770099,556.138235 675.293068,557.872159 674.778177,559.575663 C674.975047,559.811416 675.171917,560.054774 675.368787,560.305736 C709.048689,602.596745 699.78823,647.420195 695.578242,638.963514 C677.307198,603.05304 643.48343,614.034558 626.287599,621.320079 L626.286841,621.319319 Z" id="Path"></path>
            <path d="M626.286841,251.319319 C590.948689,271.822207 542.359676,273.928772 493.475357,252.885934 C453.894658,235.972573 421.052968,206.366585 400,172.539862 C410.105485,180.996543 421.894965,187.764929 434.526443,193.681564 C485.00995,217.446966 535.482858,215.819512 571.002736,193.742403 C570.98002,193.719589 570.964877,193.704379 570.949733,193.681564 C520.422308,154.774749 477.474375,104.027059 445.47544,62.5878028 C438.735673,55.8209373 433.682931,47.3627355 428.630188,39.7509624 C467.367376,75.2735844 528.844555,120.097034 550.734977,132.78966 C504.425112,83.7302652 463.158145,22.8376009 464.839112,24.5258951 C538.105014,98.9553324 606.320445,141.246341 606.320445,141.246341 C608.576877,142.523969 610.318418,143.588659 611.719224,144.539275 C613.195748,140.767231 614.490547,136.850692 615.580903,132.78966 C627.370383,89.6545046 613.899937,40.5951095 584.422451,0 C652.63031,41.443059 693.056793,119.252887 676.20927,184.381497 C675.770099,186.138235 675.293068,187.872159 674.778177,189.575663 C674.975047,189.811416 675.171917,190.054774 675.368787,190.305736 C709.048689,232.596745 699.78823,277.420195 695.578242,268.963514 C677.307198,233.05304 643.48343,244.034558 626.287599,251.320079 L626.286841,251.319319 Z" id="Path-Copy-2" transform="translate(550.000000, 135.000000) scale(1, -1) translate(-550.000000, -135.000000) "></path>
            <path d="M226.286841,621.319319 C190.948689,641.822207 142.359676,643.928772 93.4753575,622.885934 C53.8946579,605.972573 21.0529675,576.366585 0,542.539862 C10.105485,550.996543 21.8949651,557.764929 34.5264427,563.681564 C85.0099504,587.446966 135.482858,585.819512 171.002736,563.742403 C170.98002,563.719589 170.964877,563.704379 170.949733,563.681564 C120.422308,524.774749 77.4743752,474.027059 45.4754396,432.587803 C38.7356732,425.820937 33.6829308,417.362736 28.6301883,409.750962 C67.3673759,445.273584 128.844555,490.097034 150.734977,502.78966 C104.425112,453.730265 63.1581453,392.837601 64.8391117,394.525895 C138.105014,468.955332 206.320445,511.246341 206.320445,511.246341 C208.576877,512.523969 210.318418,513.588659 211.719224,514.539275 C213.195748,510.767231 214.490547,506.850692 215.580903,502.78966 C227.370383,459.654505 213.899937,410.595109 184.422451,370 C252.63031,411.443059 293.056793,489.252887 276.20927,554.381497 C275.770099,556.138235 275.293068,557.872159 274.778177,559.575663 C274.975047,559.811416 275.171917,560.054774 275.368787,560.305736 C309.048689,602.596745 299.78823,647.420195 295.578242,638.963514 C277.307198,603.05304 243.48343,614.034558 226.287599,621.320079 L226.286841,621.319319 Z" id="Path-Copy" transform="translate(150.000000, 505.000000) scale(-1, 1) translate(-150.000000, -505.000000) "></path>
            <path d="M226.286841,251.319319 C190.948689,271.822207 142.359676,273.928772 93.4753575,252.885934 C53.8946579,235.972573 21.0529675,206.366585 0,172.539862 C10.105485,180.996543 21.8949651,187.764929 34.5264427,193.681564 C85.0099504,217.446966 135.482858,215.819512 171.002736,193.742403 C170.98002,193.719589 170.964877,193.704379 170.949733,193.681564 C120.422308,154.774749 77.4743752,104.027059 45.4754396,62.5878028 C38.7356732,55.8209373 33.6829308,47.3627355 28.6301883,39.7509624 C67.3673759,75.2735844 128.844555,120.097034 150.734977,132.78966 C104.425112,83.7302652 63.1581453,22.8376009 64.8391117,24.5258951 C138.105014,98.9553324 206.320445,141.246341 206.320445,141.246341 C208.576877,142.523969 210.318418,143.588659 211.719224,144.539275 C213.195748,140.767231 214.490547,136.850692 215.580903,132.78966 C227.370383,89.6545046 213.899937,40.5951095 184.422451,0 C252.63031,41.443059 293.056793,119.252887 276.20927,184.381497 C275.770099,186.138235 275.293068,187.872159 274.778177,189.575663 C274.975047,189.811416 275.171917,190.054774 275.368787,190.305736 C309.048689,232.596745 299.78823,277.420195 295.578242,268.963514 C277.307198,233.05304 243.48343,244.034558 226.287599,251.320079 L226.286841,251.319319 Z" id="Path-Copy-3" transform="translate(150.000000, 135.000000) scale(-1, -1) translate(-150.000000, -135.000000) "></path>
        </g>
    </g>
</svg>