<?xml version="1.0" encoding="UTF-8"?>
<svg width="458px" height="458px" viewBox="0 0 458 458" version="1.1" xmlns="http://www.w3.org/2000/svg" xmlns:xlink="http://www.w3.org/1999/xlink">
    <title>CheddarBackground</title>
    <defs>
        <rect id="path-1" x="0" y="0" width="458" height="458"></rect>
        <filter x="-6.3%" y="-5.5%" width="112.7%" height="112.7%" filterUnits="objectBoundingBox" id="filter-3">
            <feMorphology radius="2.5" operator="dilate" in="SourceAlpha" result="shadowSpreadOuter1"></feMorphology>
            <feOffset dx="0" dy="4" in="shadowSpreadOuter1" result="shadowOffsetOuter1"></feOffset>
            <feGaussianBlur stdDeviation="6.5" in="shadowOffsetOuter1" result="shadowBlurOuter1"></feGaussianBlur>
            <feColorMatrix values="0 0 0 0 0   0 0 0 0 0   0 0 0 0 0  0 0 0 0.1 0" type="matrix" in="shadowBlurOuter1"></feColorMatrix>
        </filter>
    </defs>
    <g id="CheddarBackground" stroke="none" stroke-width="1" fill="none" fill-rule="evenodd">
        <g id="Cheddar-Card">
            <mask id="mask-2" fill="white">
                <use xlink:href="#path-1"></use>
            </mask>
            <g id="Rectangle-9-Copy-2" fill-rule="nonzero">
                <use fill="black" fill-opacity="1" filter="url(#filter-3)" xlink:href="#path-1"></use>
                <use fill="#FF723A" xlink:href="#path-1"></use>
            </g>
            <g id="Cheddar-AppIcon" mask="url(#mask-2)" fill="#FFFFFF" fill-rule="nonzero">
                <g transform="translate(330.000000, 295.000000)" id="Combined-Shape">
                    <path d="M116.415088,48.2582657 L66.6354464,121.962131 L32.476022,71.3854826 C30.2054974,68.0195859 26.5980765,65.8526956 22.6179384,65.4775894 C18.6318977,65.1019269 14.6936467,66.5632449 11.8628811,69.4591672 C7.1699167,74.5587044 6.6975522,82.17468 10.6152362,87.7055139 L53.99082,151.930547 C56.8662762,156.184177 61.5867001,158.727191 66.6350452,158.727191 C71.6833903,158.727191 76.4038142,156.184177 79.2779499,151.932502 L131.393839,74.7695621 C131.867997,78.6569497 132.110619,83.4881341 132.110619,89.8309692 L132.110619,126.215814 C132.110619,143.179138 130.375273,149.330449 127.116656,155.531987 C123.858039,161.733525 119.076151,166.600528 112.983067,169.917147 C106.889983,173.233766 100.846246,175 84.1795798,175 L48.4310397,175 C31.764373,175 25.7206369,173.233766 19.6275527,169.917147 C13.5344684,166.600528 8.75258026,161.733525 5.49396316,155.531987 C2.23534605,149.330449 0.5,143.179138 0.5,126.215814 L0.5,89.8309692 C0.5,72.8676449 2.23534605,66.7163336 5.49396316,60.5147957 C8.75258026,54.3132579 13.5344684,49.4462547 19.6275527,46.129636 C25.7206369,42.8130173 31.764373,41.046783 48.4310397,41.046783 L84.1795798,41.046783 C100.846246,41.046783 106.889983,42.8130173 112.983067,46.129636 C114.17804,46.7800897 115.32258,47.4901757 116.415088,48.2582657 Z M116.415088,48.2582657 L144.978598,5.9670609 C147.249173,2.60019216 150.857303,0.432757117 154.838192,0.0578376263 C158.824203,-0.317564171 162.762307,1.14401611 165.710536,4.16428589 C170.284925,9.13869687 170.75757,16.7536103 166.912415,22.1806536 L131.393839,74.7695621 C130.599905,68.260492 129.156829,64.3974879 127.116656,60.5147957 C124.497118,55.5295006 120.893205,51.4066136 116.415088,48.2582657 L116.415088,48.2582657 Z"></path>
                </g>
            </g>
        </g>
    </g>
</svg>