<?xml version="1.0" encoding="UTF-8"?>
<svg width="458px" height="458px" viewBox="0 0 458 458" version="1.1" xmlns="http://www.w3.org/2000/svg" xmlns:xlink="http://www.w3.org/1999/xlink">
    <title>MilkjarBackground</title>
    <g id="MilkjarBackground" stroke="none" stroke-width="1" fill="none" fill-rule="evenodd">
        <g id="Milkjar-Card">
            <rect id="Rectangle-9-Copy-2" fill="#006FFF" fill-rule="nonzero" x="0" y="0" width="458" height="458"></rect>
            <g id="Milkjar-JAR" transform="translate(328.000000, 257.000000)" fill="#333333">
                <path d="M102.196728,170.898304 C91.6062565,170.898304 83.2698878,167.542547 78.805651,160.901248 C77.8295572,159.458887 77.0762356,157.887796 76.5515485,156.228934 C75.1269792,151.708756 75.5989044,147.127138 76.9179501,142.659621 L90.6184378,101.822952 C90.6330939,101.764438 90.6389563,101.702999 90.6711996,101.632783 C91.3805531,99.2717574 91.6297062,96.5216163 91.0376012,94.1167057 C90.0673698,90.1875148 85.1429327,89.2483709 81.6313399,90.222623 C73.2715216,92.5485402 71.2431225,99.8890763 69.223517,106.55378 L69.223517,106.562557 L50.5575551,162.206103 C49.3645515,165.757881 46.0493501,168.00773 42.4820643,168.00773 C41.5939069,168.00773 40.6676437,167.867297 39.7706927,167.563026 C35.3299056,166.082631 32.9175176,161.261107 34.4095048,156.805294 L52.8761443,101.822952 C52.8937315,101.764438 52.8966627,101.702999 52.9289061,101.632783 C53.6382595,99.2717574 53.8903438,96.5216163 53.2953077,94.1167057 C52.3250763,90.1875148 46.820259,89.2483709 43.3115975,90.222623 C34.9312607,92.5514658 32.908724,99.9212588 30.8861873,106.597665 L14.7908988,154.921154 C12.3990293,162.364089 6.90007448,166.986667 0,169.236516 L0,173.276883 C0,178.355867 1.8144206,183.701088 5.48136758,187.422556 C9.08089666,191.108915 14.8407294,191.866667 19.7680978,191.866667 L102.22604,191.866667 C107.162202,191.866667 112.901516,191.108915 116.530357,187.422556 C120.182648,183.701088 122,178.355867 122,173.276883 L122,163.271051 C116.603638,167.846818 110.219457,170.898304 102.196728,170.898304" id="Fill-1"></path>
                <path d="M0.00762706048,145.44452 L14.5682208,101.561006 C15.0342301,99.9212153 16.8279264,94.2671687 20.558932,88.469126 C26.8808323,78.6597664 35.4653691,73.4641559 45.3688003,73.4641559 C55.5096325,73.4641559 61.8315328,77.9956216 63.367312,83.4380824 L63.4523074,83.7760321 C69.4547422,77.0434849 77.1570852,73.4641559 85.3195758,73.4641559 C99.1269343,73.4641559 105.686236,78.7244177 108.602458,90.2411583 C110.018071,95.8334924 108.690384,100.982084 106.964098,106.359893 C105.240742,111.734764 93.918767,145.403378 93.918767,145.403378 C93.1948406,147.586827 93.0248498,150.916367 94.5870069,152.667829 C97.6439109,156.1061 101.659211,156.088468 105.917775,155.682928 C109.845149,155.312653 114.22974,153.331973 116.665298,150.158184 C119.936156,145.920588 121.700544,140.531024 121.993632,135.203172 L121.993632,84.851594 C122.040526,79.229873 121.88812,74.1547489 119.455493,69.4675325 C115.211584,61.2421288 101.835064,54.5830489 95.19956,48.4558725 C94.1737533,47.5007971 93.0072645,46.1519366 91.8319831,44.5767968 C91.738195,44.4621878 91.6414761,44.3358239 91.550619,44.2094601 C89.6602037,41.6351644 87.7785811,38.4290496 86.3541752,35.0319197 C86.3541752,35.0201649 86.3395208,35.0172262 86.3395208,35.0172262 C85.9966083,34.1591276 85.6888663,33.2716421 85.4133639,32.3988501 C85.0997601,31.4525907 84.8477047,30.5651052 84.6659904,29.7599032 C84.4461747,28.8077664 84.2879074,27.9761161 84.1970502,27.2678909 C84.0739534,26.3921602 83.9596492,25.5046747 83.9596492,24.6583309 C95.6567767,24.4967027 105.205572,24.3967872 105.205572,16.5622297 L105.205572,9.06856079 C105.205572,3.72307695 100.724262,0.866666667 95.4047214,0.866666667 L26.5877447,0.866666667 C21.2740659,0.866666667 16.8074103,3.72307695 16.8074103,9.06856079 L16.8074103,16.5622297 C16.8074103,24.3967872 26.3532746,24.4967027 38.0416094,24.6583309 C37.6840425,28.8195212 36.6347888,32.5046431 35.3833046,35.5843941 C32.9917095,41.0621191 29.4629344,45.9873698 26.7987678,48.4558725 C20.1720563,54.5830489 6.7808823,61.2421288 2.53404247,69.4675325 C0.113138609,74.1547489 -0.0451287138,79.229873 0.00762706048,84.851594 L0.00762706048,145.44452 Z" id="Fill-3"></path>
            </g>
            <g id="Swift_logo" transform="translate(404.000000, 408.000000)"></g>
        </g>
    </g>
</svg>